<svg width="24" height="24" fill="none" xmlns="http://www.w3.org/2000/svg"><path d="M16.547.75H7.453A6.71 6.71 0 0 0 .75 7.453v9.094a6.71 6.71 0 0 0 6.703 6.703h9.094a6.71 6.71 0 0 0 6.703-6.703V7.453A6.71 6.71 0 0 0 16.547.75Zm4.44 15.797a4.44 4.44 0 0 1-4.44 4.44H7.453a4.44 4.44 0 0 1-4.44-4.44V7.453a4.44 4.44 0 0 1 4.44-4.44h9.094a4.44 4.44 0 0 1 4.44 4.44v9.094Z" fill="url(#a)"/><path d="M12 6c-3.308 0-6 2.692-6 6s2.692 6 6 6 6-2.692 6-6-2.692-6-6-6Zm0 9.666a3.666 3.666 0 1 1 0-7.332 3.666 3.666 0 0 1 0 7.332Z" fill="url(#b)"/><path d="M18.375 6.75a1.125 1.125 0 1 0 0-2.25 1.125 1.125 0 0 0 0 2.25Z" fill="url(#c)"/><defs><linearGradient id="a" x1="12" y1="23.184" x2="12" y2=".925" gradientUnits="userSpaceOnUse"><stop stop-color="#E09B3D"/><stop offset=".3" stop-color="#C74C4D"/><stop offset=".6" stop-color="#C21975"/><stop offset="1" stop-color="#7024C4"/></linearGradient><linearGradient id="b" x1="12" y1="23.532" x2="12" y2=".581" gradientUnits="userSpaceOnUse"><stop stop-color="#E09B3D"/><stop offset=".3" stop-color="#C74C4D"/><stop offset=".6" stop-color="#C21975"/><stop offset="1" stop-color="#7024C4"/></linearGradient><linearGradient id="c" x1="18.375" y1="19.308" x2="18.375" y2="1.349" gradientUnits="userSpaceOnUse"><stop stop-color="#E09B3D"/><stop offset=".3" stop-color="#C74C4D"/><stop offset=".6" stop-color="#C21975"/><stop offset="1" stop-color="#7024C4"/></linearGradient></defs></svg>