<svg width="32" height="32" fill="none" xmlns="http://www.w3.org/2000/svg"><rect width="32" height="32" rx="5" fill="#191B2A"/><path d="M19.031 8.5H12.97a4.474 4.474 0 0 0-4.47 4.469v6.062a4.474 4.474 0 0 0 4.469 4.469h6.062a4.474 4.474 0 0 0 4.469-4.469V12.97a4.474 4.474 0 0 0-4.469-4.47Zm2.96 10.531a2.96 2.96 0 0 1-2.96 2.96H12.97a2.96 2.96 0 0 1-2.96-2.96V12.97a2.96 2.96 0 0 1 2.96-2.96h6.062a2.96 2.96 0 0 1 2.96 2.96v6.062Z" fill="url(#a)"/><path d="M16 12c-2.206 0-4 1.794-4 4s1.794 4 4 4 4-1.794 4-4-1.794-4-4-4Zm0 6.444a2.444 2.444 0 1 1 0-4.888 2.444 2.444 0 0 1 0 4.888Z" fill="url(#b)"/><path d="M20.25 12.5a.75.75 0 1 0 0-1.5.75.75 0 0 0 0 1.5Z" fill="url(#c)"/><defs><linearGradient id="a" x1="16" y1="23.456" x2="16" y2="8.617" gradientUnits="userSpaceOnUse"><stop stop-color="#E09B3D"/><stop offset=".3" stop-color="#C74C4D"/><stop offset=".6" stop-color="#C21975"/><stop offset="1" stop-color="#7024C4"/></linearGradient><linearGradient id="b" x1="16" y1="23.688" x2="16" y2="8.387" gradientUnits="userSpaceOnUse"><stop stop-color="#E09B3D"/><stop offset=".3" stop-color="#C74C4D"/><stop offset=".6" stop-color="#C21975"/><stop offset="1" stop-color="#7024C4"/></linearGradient><linearGradient id="c" x1="20.25" y1="20.872" x2="20.25" y2="8.9" gradientUnits="userSpaceOnUse"><stop stop-color="#E09B3D"/><stop offset=".3" stop-color="#C74C4D"/><stop offset=".6" stop-color="#C21975"/><stop offset="1" stop-color="#7024C4"/></linearGradient></defs></svg>