<svg width="48" height="48" fill="none" xmlns="http://www.w3.org/2000/svg"><rect width="48" height="48" rx="5" fill="#191B2A"/><path d="M28.547 12.75h-9.094a6.71 6.71 0 0 0-6.703 6.703v9.094a6.71 6.71 0 0 0 6.703 6.703h9.094a6.71 6.71 0 0 0 6.703-6.703v-9.094a6.71 6.71 0 0 0-6.703-6.703Zm4.44 15.797a4.44 4.44 0 0 1-4.44 4.44h-9.094a4.44 4.44 0 0 1-4.44-4.44v-9.094a4.44 4.44 0 0 1 4.44-4.44h9.094a4.44 4.44 0 0 1 4.44 4.44v9.094Z" fill="url(#a)"/><path d="M24 18c-3.308 0-6 2.692-6 6s2.692 6 6 6 6-2.692 6-6-2.692-6-6-6Zm0 9.666a3.666 3.666 0 1 1 0-7.332 3.666 3.666 0 0 1 0 7.332Z" fill="url(#b)"/><path d="M30.375 18.75a1.125 1.125 0 1 0 0-2.25 1.125 1.125 0 0 0 0 2.25Z" fill="url(#c)"/><defs><linearGradient id="a" x1="24" y1="35.184" x2="24" y2="12.925" gradientUnits="userSpaceOnUse"><stop stop-color="#E09B3D"/><stop offset=".3" stop-color="#C74C4D"/><stop offset=".6" stop-color="#C21975"/><stop offset="1" stop-color="#7024C4"/></linearGradient><linearGradient id="b" x1="24" y1="35.532" x2="24" y2="12.581" gradientUnits="userSpaceOnUse"><stop stop-color="#E09B3D"/><stop offset=".3" stop-color="#C74C4D"/><stop offset=".6" stop-color="#C21975"/><stop offset="1" stop-color="#7024C4"/></linearGradient><linearGradient id="c" x1="30.375" y1="31.308" x2="30.375" y2="13.349" gradientUnits="userSpaceOnUse"><stop stop-color="#E09B3D"/><stop offset=".3" stop-color="#C74C4D"/><stop offset=".6" stop-color="#C21975"/><stop offset="1" stop-color="#7024C4"/></linearGradient></defs></svg>