<svg width="32" height="32" fill="none" xmlns="http://www.w3.org/2000/svg"><rect width="32" height="32" rx="5" fill="#111"/><g clip-path="url(#a)"><path d="m14.278 18.12-.265 3.723c.379 0 .543-.162.74-.358l1.775-1.696 3.678 2.694c.675.376 1.15.178 1.332-.621l2.415-11.315c.215-.998-.36-1.388-1.017-1.143L8.743 14.838c-.97.376-.954.916-.165 1.16l3.629 1.13 8.428-5.275c.397-.262.757-.117.46.146l-6.817 6.122Z" fill="#419FD9"/></g><defs><clipPath id="a"><path fill="#fff" transform="translate(8 8)" d="M0 0h16v16H0z"/></clipPath></defs></svg>