<svg width="32" height="32" fill="none" xmlns="http://www.w3.org/2000/svg"><rect width="32" height="32" rx="5" fill="#111"/><g clip-path="url(#a)"><path d="m14.278 18.12-.264 3.723c.378 0 .542-.162.739-.358l1.775-1.696 3.679 2.694c.674.376 1.15.178 1.332-.621l2.414-11.315h.001c.214-.998-.36-1.388-1.018-1.143L8.743 14.838c-.969.376-.954.916-.165 1.16l3.629 1.13 8.428-5.275c.397-.262.758-.117.461.146l-6.818 6.122Z" fill="#419FD9"/></g><defs><clipPath id="a"><path fill="#fff" transform="translate(8 8)" d="M0 0h16v16H0z"/></clipPath></defs></svg>