<svg width="48" height="48" fill="none" xmlns="http://www.w3.org/2000/svg"><rect width="48" height="48" rx="5" fill="#191B2A"/><path d="M32.95 14.341c-.595-.547-3.006-2.3-8.379-2.323 0 0-6.333-.385-9.42 2.448-1.72 1.72-2.325 4.23-2.387 7.352-.063 3.116-.144 8.96 5.488 10.544h.005l-.005 2.416s-.034.98.61 1.176c.778.24 1.239-.504 1.983-1.306.408-.442.97-1.085 1.397-1.58 3.851.322 6.814-.417 7.15-.528.778-.254 5.181-.816 5.897-6.66.74-6.012-.36-9.82-2.339-11.538Zm.653 11.117c-.605 4.878-4.172 5.186-4.83 5.397-.279.091-2.881.74-6.156.523 0 0-2.44 2.944-3.198 3.707-.12.12-.26.168-.35.144-.13-.033-.169-.187-.164-.413 0-.326.02-4.019.02-4.019-.006 0-.006 0 0 0-4.769-1.32-4.49-6.295-4.438-8.898.053-2.602.543-4.739 1.998-6.175 2.607-2.362 7.99-2.011 7.99-2.011 4.543.019 6.718 1.387 7.222 1.843 1.676 1.44 2.53 4.874 1.906 9.902Z" fill="#675DA9"/><path d="M26.785 21.99a.305.305 0 0 1-.303-.287c-.052-1.033-.537-1.537-1.527-1.59a.306.306 0 0 1 .034-.61c1.306.073 2.036.822 2.103 2.166a.299.299 0 0 1-.288.317c-.01.005-.014.005-.02.005Z" fill="#675DA9"/><path d="M28.34 22.51h-.004a.305.305 0 0 1-.298-.313c.024-1.037-.274-1.877-.907-2.569-.63-.691-1.499-1.066-2.646-1.147a.302.302 0 0 1-.279-.327.302.302 0 0 1 .327-.278c1.296.096 2.319.547 3.049 1.344.735.802 1.09 1.806 1.066 2.992a.308.308 0 0 1-.307.297Z" fill="#675DA9"/><path d="M29.935 23.134a.301.301 0 0 1-.303-.303c-.014-1.858-.547-3.275-1.632-4.336-1.071-1.047-2.43-1.58-4.029-1.594a.305.305 0 0 1 0-.61c1.762.014 3.26.605 4.446 1.767 1.191 1.162 1.801 2.766 1.82 4.763a.3.3 0 0 1-.302.313c.005 0 .005 0 0 0Zm-4.908 2.616s.428.039.658-.244l.447-.562c.216-.279.74-.456 1.248-.173.284.158.797.475 1.114.71.341.25 1.033.826 1.037.831.332.279.409.687.183 1.124v.01c-.23.408-.543.792-.932 1.147-.005 0-.005.005-.01.005-.321.269-.638.422-.945.456-.039.01-.082.01-.14.01-.134 0-.268-.02-.403-.063l-.01-.014c-.48-.135-1.277-.47-2.602-1.205-.864-.476-1.58-.96-2.19-1.446a11.203 11.203 0 0 1-1.017-.907l-.034-.034-.034-.034-.033-.033c-.332-.336-.62-.663-.874-.985a15.174 15.174 0 0 1-1.446-2.19c-.734-1.33-1.07-2.126-1.205-2.602l-.014-.01a1.309 1.309 0 0 1-.053-.542c.038-.312.192-.624.456-.946 0-.005.005-.005.005-.01.355-.393.74-.7 1.148-.93h.01c.431-.227.84-.15 1.123.182 0 0 .58.696.83 1.037.236.322.553.83.711 1.114.283.509.106 1.032-.173 1.248l-.562.447c-.283.23-.244.658-.244.658s.83 3.16 3.951 3.951Z" fill="#675DA9"/></svg>