<svg width="32" height="32" fill="none" xmlns="http://www.w3.org/2000/svg"><rect width="32" height="32" rx="5" fill="#191B2A"/><path d="M21.967 9.561c-.397-.365-2.004-1.533-5.586-1.55 0 0-4.223-.255-6.28 1.633-1.147 1.146-1.55 2.82-1.592 4.901-.042 2.078-.096 5.974 3.66 7.03h.002l-.003 1.61s-.022.653.407.785c.518.16.825-.337 1.322-.871.272-.295.646-.724.931-1.053 2.568.214 4.543-.279 4.767-.352.518-.17 3.454-.545 3.93-4.44.494-4.008-.24-6.547-1.558-7.693Zm.435 7.41c-.403 3.253-2.782 3.458-3.22 3.599-.186.06-1.92.493-4.104.349 0 0-1.626 1.962-2.132 2.471-.08.08-.173.112-.234.096-.086-.022-.112-.125-.109-.275 0-.218.013-2.68.013-2.68-.003 0-.003 0 0 0-3.179-.88-2.993-4.196-2.958-5.931.036-1.735.362-3.16 1.332-4.117 1.738-1.575 5.327-1.341 5.327-1.341 3.028.012 4.478.925 4.814 1.229 1.117.96 1.687 3.25 1.271 6.6Z" fill="#675DA9"/><path d="M17.857 14.66a.203.203 0 0 1-.202-.192c-.035-.688-.359-1.024-1.018-1.06a.204.204 0 0 1 .022-.406c.871.048 1.358.548 1.402 1.444a.2.2 0 0 1-.192.211c-.006.004-.01.004-.012.004Z" fill="#675DA9"/><path d="M18.894 15.006h-.003a.204.204 0 0 1-.199-.208c.016-.691-.182-1.251-.605-1.712-.42-.461-.999-.711-1.764-.766a.201.201 0 0 1-.186-.217.201.201 0 0 1 .218-.186c.864.064 1.546.365 2.033.896.49.535.727 1.204.71 1.995a.205.205 0 0 1-.204.198Z" fill="#675DA9"/><path d="M19.956 15.422a.2.2 0 0 1-.201-.201c-.01-1.24-.365-2.184-1.089-2.891-.713-.698-1.62-1.053-2.685-1.063a.204.204 0 0 1 0-.406c1.175.01 2.173.403 2.964 1.178.794.774 1.2 1.844 1.213 3.175a.2.2 0 0 1-.202.208c.004 0 .004 0 0 0Zm-3.271 1.745s.285.026.439-.163l.297-.375c.144-.186.493-.304.832-.115.19.106.532.317.743.474.227.166.688.55.692.553.22.186.272.458.121.75v.006a3.124 3.124 0 0 1-.62.765c-.004 0-.004.003-.007.003-.215.18-.426.282-.63.304-.026.007-.055.007-.094.007a.872.872 0 0 1-.268-.042l-.007-.01c-.32-.09-.852-.313-1.735-.803a10.31 10.31 0 0 1-1.46-.963 7.479 7.479 0 0 1-.678-.605l-.023-.023-.022-.022-.023-.023a8.04 8.04 0 0 1-.582-.656 10.128 10.128 0 0 1-.964-1.46c-.49-.886-.714-1.418-.803-1.735l-.01-.006a.87.87 0 0 1-.041-.269c0-.039 0-.067.006-.093.025-.208.128-.416.304-.63 0-.004.003-.004.003-.007.237-.262.493-.467.765-.62h.007c.288-.151.56-.1.749.12 0 0 .387.465.554.692.156.215.368.554.473.743.19.34.07.688-.115.832l-.374.298c-.19.154-.164.438-.164.438s.554 2.107 2.635 2.635Z" fill="#675DA9"/></svg>