<svg width="48" height="48" fill="none" xmlns="http://www.w3.org/2000/svg"><rect width="48" height="48" rx="5" fill="#191B2A"/><path d="M35.873 29.636a1.617 1.617 0 0 0-.082-.157c-.416-.751-1.212-1.673-2.386-2.766l-.025-.025-.013-.012-.012-.013h-.013c-.533-.509-.87-.851-1.012-1.026-.258-.334-.316-.672-.175-1.014.1-.259.475-.805 1.125-1.64.341-.442.612-.796.812-1.063 1.441-1.92 2.066-3.146 1.874-3.68l-.074-.124c-.05-.076-.18-.144-.387-.207-.209-.063-.475-.073-.8-.031l-3.599.025a.466.466 0 0 0-.25.006l-.163.038-.062.031-.05.038a.556.556 0 0 0-.137.13.857.857 0 0 0-.125.22 20.444 20.444 0 0 1-1.337 2.816c-.308.517-.592.966-.85 1.345-.258.38-.475.66-.65.839a4.484 4.484 0 0 1-.475.431c-.141.109-.25.155-.324.138a9.01 9.01 0 0 1-.213-.05.831.831 0 0 1-.281-.307 1.374 1.374 0 0 1-.144-.488 5.377 5.377 0 0 1-.044-.507 10.56 10.56 0 0 1 .007-.6c.008-.26.012-.434.012-.526 0-.317.006-.661.019-1.033.012-.37.023-.665.031-.882.009-.217.013-.446.013-.688 0-.242-.015-.432-.044-.57a1.948 1.948 0 0 0-.131-.4.674.674 0 0 0-.256-.3 1.444 1.444 0 0 0-.419-.17c-.441-.1-1.004-.154-1.687-.162-1.55-.017-2.545.083-2.986.3a1.684 1.684 0 0 0-.475.376c-.15.183-.171.283-.063.3.5.075.854.254 1.062.538l.076.15c.058.109.116.3.174.576.059.275.096.58.113.913.041.61.041 1.131 0 1.565-.042.434-.081.772-.119 1.014a2.035 2.035 0 0 1-.168.588 2.64 2.64 0 0 1-.15.275.217.217 0 0 1-.063.063.936.936 0 0 1-.337.062c-.117 0-.259-.058-.425-.175a2.996 2.996 0 0 1-.519-.482 6.426 6.426 0 0 1-.606-.857 14.98 14.98 0 0 1-.7-1.302l-.2-.363a31.19 31.19 0 0 1-.512-1.02 19.688 19.688 0 0 1-.575-1.295.825.825 0 0 0-.3-.4l-.062-.038a.853.853 0 0 0-.2-.107 1.319 1.319 0 0 0-.287-.08l-3.424.024c-.35 0-.587.08-.712.238l-.05.075a.405.405 0 0 0-.038.2c0 .092.025.205.075.338a41.336 41.336 0 0 0 1.63 3.404c.588 1.093 1.098 1.974 1.531 2.64.433.668.875 1.298 1.325 1.89.45.593.747.973.893 1.14.146.167.26.291.344.375l.312.3c.2.2.494.44.881.72.388.28.817.555 1.287.826a6.982 6.982 0 0 0 1.644.663c.625.171 1.233.24 1.824.207h1.437c.292-.025.512-.117.663-.276l.05-.062a.832.832 0 0 0 .093-.232 1.28 1.28 0 0 0 .044-.344 4.128 4.128 0 0 1 .08-.97c.063-.287.134-.504.213-.65a1.598 1.598 0 0 1 .482-.55.823.823 0 0 1 .1-.045c.2-.066.434-.002.705.195.271.196.525.438.763.726.237.288.522.61.856.97.333.358.625.625.874.8l.25.15c.167.1.384.192.65.276.266.083.5.104.7.062l3.199-.05c.316 0 .562-.052.737-.156.175-.104.279-.22.312-.344a.971.971 0 0 0 .007-.426 1.569 1.569 0 0 0-.088-.331Z" fill="#436EAB"/></svg>