<svg width="32" height="32" fill="none" xmlns="http://www.w3.org/2000/svg"><rect width="32" height="32" rx="5" fill="#191B2A"/><path d="M21.334 10.69c-1.39-1.42-3.31-2.19-5.273-2.19-4.169 0-7.52 3.365-7.48 7.46 0 1.297.369 2.553.982 3.689L8.5 23.5l3.965-1.014a7.345 7.345 0 0 0 3.555.892c4.128 0 7.48-3.364 7.48-7.46a7.327 7.327 0 0 0-2.166-5.229ZM16.06 22.121c-1.103 0-2.207-.284-3.147-.852l-.245-.121-2.37.608.612-2.311-.163-.243c-1.798-2.879-.94-6.69 2.003-8.473 2.943-1.784 6.743-.933 8.542 1.986 1.798 2.92.94 6.69-2.003 8.473a5.995 5.995 0 0 1-3.229.933Zm3.597-4.5-.45-.203s-.653-.284-1.062-.487c-.041 0-.082-.04-.123-.04a.593.593 0 0 0-.286.081s-.04.04-.613.69a.225.225 0 0 1-.204.12h-.041a.311.311 0 0 1-.164-.08l-.204-.081c-.45-.203-.858-.446-1.185-.77-.082-.082-.205-.163-.287-.244-.286-.284-.572-.608-.776-.973l-.04-.08c-.042-.041-.042-.082-.083-.163 0-.081 0-.162.041-.203 0 0 .164-.203.286-.324.082-.081.123-.203.205-.284.081-.121.122-.284.081-.405-.04-.203-.53-1.298-.653-1.54a.473.473 0 0 0-.287-.204h-.449c-.082 0-.164.041-.246.041l-.04.04c-.082.041-.164.122-.246.163-.081.08-.122.162-.204.243-.286.365-.45.81-.45 1.257 0 .324.082.648.205.932l.04.122c.369.77.859 1.46 1.513 2.067l.164.162c.122.122.245.203.326.325a7.324 7.324 0 0 0 2.943 1.54c.123.04.286.04.409.081h.409c.204 0 .45-.08.613-.162.122-.08.204-.08.286-.162l.082-.081c.081-.081.163-.122.245-.203a1.05 1.05 0 0 0 .204-.243c.082-.162.123-.365.164-.567v-.284s-.041-.04-.123-.081Z" fill="#0DC143"/></svg>