<svg width="48" height="48" fill="none" xmlns="http://www.w3.org/2000/svg"><rect width="48" height="48" rx="5" fill="#191B2A"/><path d="M32 16.034c-2.084-2.129-4.965-3.284-7.908-3.284-6.253 0-11.28 5.047-11.22 11.19 0 1.945.552 3.83 1.472 5.533L12.75 35.25l5.947-1.52c1.655.912 3.494 1.338 5.334 1.338 6.192 0 11.219-5.048 11.219-11.19A10.99 10.99 0 0 0 32 16.034Zm-7.908 17.148c-1.655 0-3.31-.425-4.72-1.277l-.369-.182-3.556.912.92-3.466-.245-.365c-2.698-4.317-1.41-10.034 3.004-12.71 4.414-2.675 10.116-1.398 12.813 2.98 2.698 4.379 1.41 10.034-3.004 12.71-1.41.912-3.126 1.398-4.843 1.398Zm5.395-6.75-.674-.304s-.981-.425-1.594-.73c-.062 0-.123-.06-.184-.06a.89.89 0 0 0-.43.121s-.06.061-.919 1.034a.338.338 0 0 1-.307.183h-.06a.466.466 0 0 1-.246-.122l-.307-.122c-.674-.304-1.287-.668-1.778-1.155-.122-.122-.306-.243-.429-.365-.429-.425-.858-.912-1.165-1.46l-.06-.12c-.062-.062-.062-.123-.123-.244 0-.122 0-.243.06-.304 0 0 .246-.304.43-.487.123-.121.184-.304.306-.425.123-.183.184-.426.123-.608-.061-.305-.797-1.946-.98-2.311-.123-.183-.246-.244-.43-.304h-.674c-.123 0-.246.06-.368.06l-.062.061c-.122.061-.245.183-.367.244-.123.121-.184.243-.307.364a3.085 3.085 0 0 0-.674 1.886c0 .486.122.973.306 1.398l.062.183a10.131 10.131 0 0 0 2.268 3.1l.245.244c.184.183.368.304.49.487 1.288 1.094 2.76 1.885 4.415 2.31.184.061.429.061.613.122h.613c.306 0 .674-.122.92-.243.184-.122.306-.122.429-.243l.122-.122c.123-.122.246-.182.368-.304.123-.122.245-.243.307-.365.122-.243.184-.547.245-.851v-.426s-.061-.06-.184-.122Z" fill="#0DC143"/></svg>