<svg width="32" height="32" fill="none" xmlns="http://www.w3.org/2000/svg"><rect width="32" height="32" rx="5" fill="#111"/><path d="M23.915 19.757a1.08 1.08 0 0 0-.054-.104c-.278-.501-.808-1.116-1.591-1.844l-.017-.017-.008-.008-.008-.009h-.009a9.828 9.828 0 0 1-.675-.684c-.172-.222-.21-.448-.116-.676.066-.172.316-.536.75-1.093.227-.294.408-.53.54-.709.962-1.28 1.378-2.097 1.25-2.453l-.05-.083c-.032-.05-.119-.096-.257-.138a1.31 1.31 0 0 0-.534-.02l-2.399.016a.31.31 0 0 0-.166.004l-.109.025-.041.021-.034.025a.37.37 0 0 0-.091.088.573.573 0 0 0-.083.146 13.638 13.638 0 0 1-.892 1.877 17.82 17.82 0 0 1-.566.897c-.172.253-.317.44-.433.56a3.122 3.122 0 0 1-.317.287c-.095.072-.167.103-.217.092a6.325 6.325 0 0 1-.141-.034.554.554 0 0 1-.188-.204.916.916 0 0 1-.096-.325 3.586 3.586 0 0 1-.029-.338 7.09 7.09 0 0 1 .005-.401c.005-.172.008-.29.008-.35 0-.212.004-.441.012-.689l.021-.588c.006-.145.008-.298.008-.459 0-.161-.01-.288-.029-.38a1.305 1.305 0 0 0-.087-.267.448.448 0 0 0-.17-.2.96.96 0 0 0-.28-.112 5.535 5.535 0 0 0-1.124-.109c-1.034-.01-1.697.056-1.992.2a1.122 1.122 0 0 0-.316.25c-.1.123-.114.19-.042.2.333.05.57.17.708.36l.05.1c.04.072.078.2.117.384.039.183.064.386.075.609a6.44 6.44 0 0 1 0 1.043c-.028.289-.054.514-.08.675a1.354 1.354 0 0 1-.212.576.145.145 0 0 1-.041.042.624.624 0 0 1-.225.042c-.078 0-.172-.04-.284-.117a2.003 2.003 0 0 1-.345-.322 4.294 4.294 0 0 1-.404-.571 9.962 9.962 0 0 1-.467-.868l-.133-.242a20.84 20.84 0 0 1-.341-.68 13.122 13.122 0 0 1-.384-.863.55.55 0 0 0-.2-.267l-.041-.025a.878.878 0 0 0-.325-.125l-2.283.016c-.233 0-.391.053-.475.159l-.033.05A.27.27 0 0 0 8 12.26c0 .061.017.136.05.226.333.784.696 1.54 1.087 2.269.392.728.732 1.315 1.02 1.76.29.445.584.865.884 1.26.3.395.498.648.595.76.097.11.174.194.23.25l.208.2c.133.133.329.293.587.48.258.186.544.37.858.55.314.181.679.328 1.095.442.417.115.822.16 1.217.138h.958c.194-.017.341-.078.441-.183l.033-.042a.554.554 0 0 0 .063-.154.832.832 0 0 0 .029-.23 2.75 2.75 0 0 1 .054-.646 1.71 1.71 0 0 1 .142-.434 1.066 1.066 0 0 1 .32-.367.543.543 0 0 1 .067-.03c.133-.044.29 0 .471.13.18.13.35.292.508.484.159.192.349.407.57.646.223.24.417.418.584.535l.166.1c.112.067.256.128.434.183.177.056.333.07.466.042l2.133-.033c.21 0 .375-.035.491-.105.117-.07.186-.146.209-.23a.646.646 0 0 0 .004-.283 1.06 1.06 0 0 0-.059-.221Z" fill="#436EAB"/></svg>