<svg width="18" height="18" fill="none" xmlns="http://www.w3.org/2000/svg"><path fill-rule="evenodd" clip-rule="evenodd" d="M0 8.909s3.813 5.716 9 5.716c5.187 0 9-5.716 9-5.716s-3.813-5.534-9-5.534c-5.187 0-9 5.534-9 5.534Zm1.532.012.101.125c.41.5 1.005 1.166 1.747 1.828C4.896 12.227 6.86 13.42 9 13.42s4.104-1.192 5.62-2.545a16.405 16.405 0 0 0 1.848-1.953 16.04 16.04 0 0 0-1.833-1.874C13.123 5.741 11.155 4.581 9 4.581S4.878 5.74 3.365 7.047a16.085 16.085 0 0 0-1.833 1.874Z" fill="#BDBDBE"/><path fill-rule="evenodd" clip-rule="evenodd" d="M11.864 8.999c0 1.554-1.283 2.813-2.864 2.813-1.582 0-2.864-1.26-2.864-2.813 0-1.554 1.282-2.814 2.864-2.814 1.582 0 2.864 1.26 2.864 2.814ZM9 10.607c.904 0 1.636-.72 1.636-1.608 0-.888-.732-1.608-1.636-1.608-.904 0-1.636.72-1.636 1.608 0 .888.732 1.608 1.636 1.608Z" fill="#BDBDBE"/></svg>